# xmcd
#
# Track frame offsets:
#	150
#	12480
#	23305
#	50402
#	68095
#	83987
#	97850
#	107475
#	117754
#	129644
#	145103
#	156267
#	167985
#	178513
#	198647
#	211624
#	221550
#	233552
#	243604
#	256012
#	274871
#	286402
#	296186
#	317638
#
# Disc length: 4418 seconds
#
# Revision: 1
# Processed by: cddbd v1.5.2PL0 Copyright (c) Steve Scherf et al.
# Submitted via: audiograbber 1.83.01
#
DISCID=54114018
DTITLE=The Spinners Country - CD-NH 1366 - The Spinners Country- Collection
DYEAR=1900
DGENRE=Folk
TTITLE0=The family of man
TTITLE1=A roving
TTITLE2=Abiyoyo
TTITLE3=Liverool Judies
TTITLE4=Navy boots
TTITLE5=Wimoweh
TTITLE6=Drunken sailor
TTITLE7=Gungu walk
TTITLE8=Black and white
TTITLE9=Lond time ago
TTITLE10=Mandy
TTITLE11=Rothesay-O
TTITLE12=The fox
TTITLE13=The leaving of Liverpool
TTITLE14=Asikatali
TTITLE15=Kick the cat
TTITLE16=Michanical Balckbird
TTITLE17=Three jolly boys
TTITLE18=Linstead market
TTITLE19=The Ellen Vannin tragedy
TTITLE20=The keeper
TTITLE21=Uncle Sigmund's clockword storybook
TTITLE22=Seven little kids
TTITLE23=Jug o' punch
EXTD=
EXTT0=
EXTT1=
EXTT2=
EXTT3=
EXTT4=
EXTT5=
EXTT6=
EXTT7=
EXTT8=
EXTT9=
EXTT10=
EXTT11=
EXTT12=
EXTT13=
EXTT14=
EXTT15=
EXTT16=
EXTT17=
EXTT18=
EXTT19=
EXTT20=
EXTT21=
EXTT22=
EXTT23=
PLAYORDER=
